<?xml version="1.0" encoding="utf-8" ?>
<svg baseProfile="full" height="520mm" version="1.1" viewBox="0 0 400 520" width="400mm" xmlns="http://www.w3.org/2000/svg" xmlns:ev="http://www.w3.org/2001/xml-events" xmlns:xlink="http://www.w3.org/1999/xlink"><defs /><rect fill="white" height="520" width="400" x="0" y="0" /><rect fill="#1a1a2e" height="20" width="400" x="0" y="0" /><text fill="white" font-size="7" font-weight="bold" x="5" y="14">PiCar L298N 双路电机驱动模块原理图</text><text fill="#aaa" font-size="3.5" text-anchor="end" x="395" y="14">xiaomav | Pi 5 GPIO | v0.1 | 2026-03-27</text><rect fill="#fafbfc" height="480" stroke="#e0e0e0" stroke-width="0.3" width="390" x="5" y="22" /><line stroke="#f5a623" stroke-width="0.8" x1="20" x2="20" y1="40" y2="495" /><text fill="#f5a623" font-size="4" font-weight="bold" x="21" y="45">+12V</text><line stroke="#e94560" stroke-width="0.8" x1="130" x2="130" y1="60" y2="495" /><text fill="#e94560" font-size="4" font-weight="bold" x="131" y="63">+5V</text><line stroke="#2d6a4f" stroke-width="0.8" x1="20" x2="380" y1="502" y2="502" /><text fill="#2d6a4f" font-size="3.5" x="375" y="506">GND</text><rect fill="#fff3e0" height="12" rx="2" stroke="#16213e" stroke-width="0.7" width="18" x="20" y="40" /><text fill="#e65100" font-size="3" x="21" y="45">DC IN</text><text fill="#f5a623" font-size="3" x="21" y="50">12V</text><line stroke="#f5a623" stroke-width="0.8" x1="29" x2="29" y1="40" y2="40" /><circle cx="29" cy="40" fill="#f5a623" r="1.2" /><g><rect fill="#f8f9fa" height="20" stroke="#16213e" stroke-width="0.8" width="28" x="55" y="50" /><text fill="#16213e" font-size="5" font-weight="bold" text-anchor="middle" x="60.0" y="61.5">LM7805</text><text fill="#533483" font-family="monospace" font-size="3" x="57" y="46">5V Reg</text><line stroke="#1a1a2e" stroke-width="0.4" x1="55" x2="45" y1="54.0" y2="54.0" /><text fill="#1a73e8" font-family="monospace" font-size="2.8" text-anchor="end" x="44" y="52.0">IN</text><text fill="#1a73e8" font-family="monospace" font-size="2.3" text-anchor="end" x="44" y="58.0">+12V</text><line stroke="#1a1a2e" stroke-width="0.4" x1="55" x2="45" y1="66.0" y2="66.0" /><text fill="#1a73e8" font-family="monospace" font-size="2.8" text-anchor="end" x="44" y="64.0">GND</text><text fill="#1a73e8" font-family="monospace" font-size="2.3" text-anchor="end" x="44" y="70.0">GND</text><line stroke="#1a1a2e" stroke-width="0.4" x1="83" x2="93" y1="54.0" y2="54.0" /><text fill="#1a73e8" font-family="monospace" font-size="2.8" text-anchor="start" x="94" y="52.0">OUT</text><text fill="#1a73e8" font-family="monospace" font-size="2.3" text-anchor="start" x="94" y="58.0">+5V</text></g><line stroke="#f5a623" stroke-width="0.5" x1="29" x2="29" y1="52" y2="75" /><line stroke="#f5a623" stroke-width="0.5" x1="29" x2="63" y1="75" y2="75" /><circle cx="63" cy="75" fill="#f5a623" r="1.2" /><line stroke="#e94560" stroke-width="0.5" x1="87" x2="130" y1="70" y2="70" /><line stroke="#e94560" stroke-width="0.5" x1="130" x2="130" y1="70" y2="65" /><circle cx="130" cy="65" fill="#e94560" r="1.2" /><line stroke="#1a1a2e" stroke-width="0.4" x1="37.5" x2="37.5" y1="72" y2="84" /><g><line stroke="#1a1a2e" stroke-width="0.4" x1="20" x2="35" y1="80" y2="80" /><line stroke="#1a1a2e" stroke-width="0.6" x1="35" x2="35" y1="80" y2="72" /><line stroke="#1a1a2e" stroke-width="0.6" x1="40" x2="40" y1="80" y2="72" /><line stroke="#1a1a2e" stroke-width="0.4" x1="35" x2="40" y1="80" y2="80" /><line stroke="#1a1a2e" stroke-width="0.4" x1="40" x2="55" y1="80" y2="80" /><text fill="#f5a623" font-size="4" x="33" y="71">+</text><text fill="#0f3460" font-family="monospace" font-size="3.5" x="23" y="73">C1</text><text fill="#533483" font-family="monospace" font-size="3" x="23" y="89">470μF/25V</text></g><line stroke="#f5a623" stroke-width="0.5" x1="20" x2="20" y1="80" y2="75" /><line stroke="#f5a623" stroke-width="0.5" x1="20" x2="35" y1="80" y2="80" /><line stroke="#2d6a4f" stroke-width="0.5" x1="55" x2="55" y1="80" y2="502" /><line stroke="#2d6a4f" stroke-width="0.5" x1="55" x2="55" y1="502" y2="507" /><line stroke="#2d6a4f" stroke-width="0.5" x1="50" x2="60" y1="507" y2="507" /><line stroke="#2d6a4f" stroke-width="0.5" x1="52" x2="58" y1="509" y2="509" /><line stroke="#2d6a4f" stroke-width="0.5" x1="53.5" x2="56.5" y1="511" y2="511" /><line stroke="#1a1a2e" stroke-width="0.4" x1="117.5" x2="117.5" y1="72" y2="84" /><g><line stroke="#1a1a2e" stroke-width="0.4" x1="100" x2="115" y1="80" y2="80" /><line stroke="#1a1a2e" stroke-width="0.6" x1="115" x2="115" y1="80" y2="72" /><line stroke="#1a1a2e" stroke-width="0.6" x1="120" x2="120" y1="80" y2="72" /><line stroke="#1a1a2e" stroke-width="0.4" x1="115" x2="120" y1="80" y2="80" /><line stroke="#1a1a2e" stroke-width="0.4" x1="120" x2="135" y1="80" y2="80" /><text fill="#f5a623" font-size="4" x="113" y="71">+</text><text fill="#0f3460" font-family="monospace" font-size="3.5" x="103" y="73">C2</text><text fill="#533483" font-family="monospace" font-size="3" x="103" y="89">100μF/16V</text></g><line stroke="#e94560" stroke-width="0.5" x1="100" x2="100" y1="80" y2="70" /><line stroke="#e94560" stroke-width="0.5" x1="100" x2="55" y1="80" y2="80" /><line stroke="#2d6a4f" stroke-width="0.5" x1="70" x2="70" y1="80" y2="502" /><line stroke="#2d6a4f" stroke-width="0.5" x1="70" x2="70" y1="502" y2="507" /><line stroke="#2d6a4f" stroke-width="0.5" x1="65" x2="75" y1="507" y2="507" /><line stroke="#2d6a4f" stroke-width="0.5" x1="67" x2="73" y1="509" y2="509" /><line stroke="#2d6a4f" stroke-width="0.5" x1="68.5" x2="71.5" y1="511" y2="511" /><g><rect fill="#f8f9fa" height="100" stroke="#16213e" stroke-width="0.8" width="70" x="170" y="45" /><text fill="#16213e" font-size="5" font-weight="bold" text-anchor="middle" x="197.5" y="96.5">L298N</text><text fill="#533483" font-family="monospace" font-size="3" x="172" y="41">Dual H-Bridge</text><line stroke="#1a1a2e" stroke-width="0.4" x1="170" x2="160" y1="49.0" y2="49.0" /><text fill="#1a73e8" font-family="monospace" font-size="2.8" text-anchor="end" x="159" y="47.0">Vs</text><text fill="#1a73e8" font-family="monospace" font-size="2.3" text-anchor="end" x="159" y="53.0">+12V</text><line stroke="#1a1a2e" stroke-width="0.4" x1="170" x2="160" y1="62.14285714285714" y2="62.14285714285714" /><text fill="#1a73e8" font-family="monospace" font-size="2.8" text-anchor="end" x="159" y="60.14285714285714">GND</text><text fill="#1a73e8" font-family="monospace" font-size="2.3" text-anchor="end" x="159" y="66.14285714285714">GND</text><line stroke="#1a1a2e" stroke-width="0.4" x1="170" x2="160" y1="75.28571428571428" y2="75.28571428571428" /><text fill="#ff6b35" font-family="monospace" font-size="2.8" text-anchor="end" x="159" y="73.28571428571428">IN1</text><text fill="#ff6b35" font-family="monospace" font-size="2.3" text-anchor="end" x="159" y="79.28571428571428">GPIO23</text><line stroke="#1a1a2e" stroke-width="0.4" x1="170" x2="160" y1="88.42857142857143" y2="88.42857142857143" /><text fill="#ff6b35" font-family="monospace" font-size="2.8" text-anchor="end" x="159" y="86.42857142857143">IN2</text><text fill="#ff6b35" font-family="monospace" font-size="2.3" text-anchor="end" x="159" y="92.42857142857143">GPIO24</text><line stroke="#1a1a2e" stroke-width="0.4" x1="170" x2="160" y1="101.57142857142857" y2="101.57142857142857" /><text fill="#ff6b35" font-family="monospace" font-size="2.8" text-anchor="end" x="159" y="99.57142857142857">IN3</text><text fill="#ff6b35" font-family="monospace" font-size="2.3" text-anchor="end" x="159" y="105.57142857142857">GPIO27</text><line stroke="#1a1a2e" stroke-width="0.4" x1="170" x2="160" y1="114.71428571428571" y2="114.71428571428571" /><text fill="#ff6b35" font-family="monospace" font-size="2.8" text-anchor="end" x="159" y="112.71428571428571">IN4</text><text fill="#ff6b35" font-family="monospace" font-size="2.3" text-anchor="end" x="159" y="118.71428571428571">GPIO22</text><line stroke="#1a1a2e" stroke-width="0.4" x1="170" x2="160" y1="127.85714285714286" y2="127.85714285714286" /><text fill="#ff6b35" font-family="monospace" font-size="2.8" text-anchor="end" x="159" y="125.85714285714286">EN_A</text><text fill="#ff6b35" font-family="monospace" font-size="2.3" text-anchor="end" x="159" y="131.85714285714286">GPIO18
(PWM)</text><line stroke="#1a1a2e" stroke-width="0.4" x1="170" x2="160" y1="141.0" y2="141.0" /><text fill="#ff6b35" font-family="monospace" font-size="2.8" text-anchor="end" x="159" y="139.0">EN_B</text><text fill="#ff6b35" font-family="monospace" font-size="2.3" text-anchor="end" x="159" y="145.0">GPIO19
(PWM)</text><line stroke="#1a1a2e" stroke-width="0.4" x1="240" x2="250" y1="49.0" y2="49.0" /><text fill="#1a73e8" font-family="monospace" font-size="2.8" text-anchor="start" x="251" y="47.0">OUT1</text><text fill="#1a73e8" font-family="monospace" font-size="2.3" text-anchor="start" x="251" y="53.0">→ Motor A</text><line stroke="#1a1a2e" stroke-width="0.4" x1="240" x2="250" y1="62.14285714285714" y2="62.14285714285714" /><text fill="#1a73e8" font-family="monospace" font-size="2.8" text-anchor="start" x="251" y="60.14285714285714">OUT2</text><text fill="#1a73e8" font-family="monospace" font-size="2.3" text-anchor="start" x="251" y="66.14285714285714">→ Motor A</text><line stroke="#1a1a2e" stroke-width="0.4" x1="240" x2="250" y1="75.28571428571428" y2="75.28571428571428" /><text fill="#1a73e8" font-family="monospace" font-size="2.8" text-anchor="start" x="251" y="73.28571428571428">OUT3</text><text fill="#1a73e8" font-family="monospace" font-size="2.3" text-anchor="start" x="251" y="79.28571428571428">→ Motor B</text><line stroke="#1a1a2e" stroke-width="0.4" x1="240" x2="250" y1="88.42857142857143" y2="88.42857142857143" /><text fill="#1a73e8" font-family="monospace" font-size="2.8" text-anchor="start" x="251" y="86.42857142857143">OUT4</text><text fill="#1a73e8" font-family="monospace" font-size="2.3" text-anchor="start" x="251" y="92.42857142857143">→ Motor B</text><line stroke="#1a1a2e" stroke-width="0.4" x1="240" x2="250" y1="101.57142857142857" y2="101.57142857142857" /><text fill="#1a73e8" font-family="monospace" font-size="2.8" text-anchor="start" x="251" y="99.57142857142857">VS</text><line stroke="#1a1a2e" stroke-width="0.4" x1="240" x2="250" y1="114.71428571428571" y2="114.71428571428571" /><text fill="#1a73e8" font-family="monospace" font-size="2.8" text-anchor="start" x="251" y="112.71428571428571">GND</text><line stroke="#1a1a2e" stroke-width="0.4" x1="240" x2="250" y1="127.85714285714286" y2="127.85714285714286" /><text fill="#1a73e8" font-family="monospace" font-size="2.8" text-anchor="start" x="251" y="125.85714285714286">sense_A</text><line stroke="#1a1a2e" stroke-width="0.4" x1="240" x2="250" y1="141.0" y2="141.0" /><text fill="#1a73e8" font-family="monospace" font-size="2.8" text-anchor="start" x="251" y="139.0">sense_B</text></g><line stroke="#f5a623" stroke-width="0.6" x1="20" x2="20" y1="80" y2="50" /><line stroke="#f5a623" stroke-width="0.6" x1="20" x2="170" y1="50" y2="50" /><circle cx="170" cy="50" fill="#f5a623" r="1.2" /><line stroke="#2d6a4f" stroke-width="0.5" x1="100" x2="100" y1="502" y2="70" /><line stroke="#2d6a4f" stroke-width="0.5" x1="100" x2="170" y1="70" y2="70" /><circle cx="170" cy="70" fill="#2d6a4f" r="1.2" /><rect fill="#e3f2fd" height="130" rx="2" stroke="#16213e" stroke-width="0.7" width="50" x="300" y="50" /><text fill="#1565c0" font-size="4" font-weight="bold" x="305" y="58">Raspberry Pi 5</text><text fill="#0f3460" font-size="3" x="305" y="63">GPIO Header</text><line stroke="#ff6b35" stroke-width="0.5" x1="305" x2="315" y1="70" y2="70" /><circle cx="315" cy="70" fill="#ff6b35" r="1.2" /><text fill="#ff6b35" font-family="monospace" font-size="2.8" x="317" y="71">GPIO18</text><text fill="#0f3460" font-family="monospace" font-size="2.3" x="317" y="75">PWM ENA</text><line stroke="#1a73e8" stroke-width="0.5" x1="305" x2="315" y1="83" y2="83" /><circle cx="315" cy="83" fill="#1a73e8" r="1.2" /><text fill="#1a73e8" font-family="monospace" font-size="2.8" x="317" y="84">GPIO23</text><text fill="#0f3460" font-family="monospace" font-size="2.3" x="317" y="88">IN1</text><line stroke="#1a73e8" stroke-width="0.5" x1="305" x2="315" y1="96" y2="96" /><circle cx="315" cy="96" fill="#1a73e8" r="1.2" /><text fill="#1a73e8" font-family="monospace" font-size="2.8" x="317" y="97">GPIO24</text><text fill="#0f3460" font-family="monospace" font-size="2.3" x="317" y="101">IN2</text><line stroke="#1a73e8" stroke-width="0.5" x1="305" x2="315" y1="109" y2="109" /><circle cx="315" cy="109" fill="#1a73e8" r="1.2" /><text fill="#1a73e8" font-family="monospace" font-size="2.8" x="317" y="110">GPIO27</text><text fill="#0f3460" font-family="monospace" font-size="2.3" x="317" y="114">IN3</text><line stroke="#1a73e8" stroke-width="0.5" x1="305" x2="315" y1="122" y2="122" /><circle cx="315" cy="122" fill="#1a73e8" r="1.2" /><text fill="#1a73e8" font-family="monospace" font-size="2.8" x="317" y="123">GPIO22</text><text fill="#0f3460" font-family="monospace" font-size="2.3" x="317" y="127">IN4</text><line stroke="#ff6b35" stroke-width="0.5" x1="305" x2="315" y1="135" y2="135" /><circle cx="315" cy="135" fill="#ff6b35" r="1.2" /><text fill="#ff6b35" font-family="monospace" font-size="2.8" x="317" y="136">GPIO12</text><text fill="#0f3460" font-family="monospace" font-size="2.3" x="317" y="140">PWM Servo</text><line stroke="#e94560" stroke-width="0.5" x1="305" x2="315" y1="148" y2="148" /><circle cx="315" cy="148" fill="#e94560" r="1.2" /><text fill="#e94560" font-family="monospace" font-size="2.8" x="317" y="149">5V</text><text fill="#0f3460" font-family="monospace" font-size="2.3" x="317" y="153">+5V</text><line stroke="#2d6a4f" stroke-width="0.5" x1="305" x2="315" y1="161" y2="161" /><circle cx="315" cy="161" fill="#2d6a4f" r="1.2" /><text fill="#2d6a4f" font-family="monospace" font-size="2.8" x="317" y="162">GND</text><text fill="#0f3460" font-family="monospace" font-size="2.3" x="317" y="166">GND</text><line stroke="#ff6b35" stroke-width="0.5" x1="315" x2="315" y1="70" y2="73" /><line stroke="#ff6b35" stroke-width="0.5" x1="315" x2="250" y1="73" y2="78.0" /><line stroke="#1a73e8" stroke-width="0.5" x1="315" x2="315" y1="83" y2="85" /><line stroke="#1a73e8" stroke-width="0.5" x1="315" x2="315" y1="96" y2="85" /><line stroke="#1a73e8" stroke-width="0.5" x1="315" x2="250" y1="85" y2="85" /><line stroke="#1a73e8" stroke-width="0.5" x1="315" x2="315" y1="109" y2="100" /><line stroke="#1a73e8" stroke-width="0.5" x1="315" x2="250" y1="100" y2="100" /><line stroke="#1a73e8" stroke-width="0.5" x1="315" x2="315" y1="122" y2="115" /><line stroke="#1a73e8" stroke-width="0.5" x1="315" x2="250" y1="115" y2="115" /><text fill="#0f3460" font-size="3" x="265" y="49">续流二极管</text><g><line stroke="#1a1a2e" stroke-width="0.4" x1="265" x2="275" y1="58" y2="58" /><line stroke="#1a1a2e" stroke-width="0.6" x1="275" x2="275" y1="52" y2="64" /><line stroke="#1a1a2e" stroke-width="0.6" x1="275" x2="283" y1="52" y2="58" /><line stroke="#1a1a2e" stroke-width="0.6" x1="275" x2="283" y1="64" y2="58" /><line stroke="#1a1a2e" stroke-width="0.6" x1="275" x2="283" y1="52" y2="52" /><line stroke="#1a1a2e" stroke-width="0.6" x1="275" x2="283" y1="64" y2="64" /><line stroke="#1a1a2e" stroke-width="0.4" x1="283" x2="293" y1="58" y2="58" /><line stroke="#1a1a2e" stroke-width="0.6" x1="275" x2="275" y1="52" y2="64" /><text fill="#0f3460" font-family="monospace" font-size="3.5" x="265" y="50">D1</text><text fill="#533483" font-family="monospace" font-size="2.5" x="269" y="67">1N4007</text></g><g><line stroke="#1a1a2e" stroke-width="0.4" x1="265" x2="275" y1="73" y2="73" /><line stroke="#1a1a2e" stroke-width="0.6" x1="275" x2="275" y1="67" y2="79" /><line stroke="#1a1a2e" stroke-width="0.6" x1="275" x2="283" y1="67" y2="73" /><line stroke="#1a1a2e" stroke-width="0.6" x1="275" x2="283" y1="79" y2="73" /><line stroke="#1a1a2e" stroke-width="0.6" x1="275" x2="283" y1="67" y2="67" /><line stroke="#1a1a2e" stroke-width="0.6" x1="275" x2="283" y1="79" y2="79" /><line stroke="#1a1a2e" stroke-width="0.4" x1="283" x2="293" y1="73" y2="73" /><line stroke="#1a1a2e" stroke-width="0.6" x1="275" x2="275" y1="67" y2="79" /><text fill="#0f3460" font-family="monospace" font-size="3.5" x="265" y="65">D2</text><text fill="#533483" font-family="monospace" font-size="2.5" x="269" y="82">1N4007</text></g><g><line stroke="#1a1a2e" stroke-width="0.4" x1="265" x2="275" y1="88" y2="88" /><line stroke="#1a1a2e" stroke-width="0.6" x1="275" x2="275" y1="82" y2="94" /><line stroke="#1a1a2e" stroke-width="0.6" x1="275" x2="283" y1="82" y2="88" /><line stroke="#1a1a2e" stroke-width="0.6" x1="275" x2="283" y1="94" y2="88" /><line stroke="#1a1a2e" stroke-width="0.6" x1="275" x2="283" y1="82" y2="82" /><line stroke="#1a1a2e" stroke-width="0.6" x1="275" x2="283" y1="94" y2="94" /><line stroke="#1a1a2e" stroke-width="0.4" x1="283" x2="293" y1="88" y2="88" /><line stroke="#1a1a2e" stroke-width="0.6" x1="275" x2="275" y1="82" y2="94" /><text fill="#0f3460" font-family="monospace" font-size="3.5" x="265" y="80">D3</text><text fill="#533483" font-family="monospace" font-size="2.5" x="269" y="97">1N4007</text></g><g><line stroke="#1a1a2e" stroke-width="0.4" x1="265" x2="275" y1="103" y2="103" /><line stroke="#1a1a2e" stroke-width="0.6" x1="275" x2="275" y1="97" y2="109" /><line stroke="#1a1a2e" stroke-width="0.6" x1="275" x2="283" y1="97" y2="103" /><line stroke="#1a1a2e" stroke-width="0.6" x1="275" x2="283" y1="109" y2="103" /><line stroke="#1a1a2e" stroke-width="0.6" x1="275" x2="283" y1="97" y2="97" /><line stroke="#1a1a2e" stroke-width="0.6" x1="275" x2="283" y1="109" y2="109" /><line stroke="#1a1a2e" stroke-width="0.4" x1="283" x2="293" y1="103" y2="103" /><line stroke="#1a1a2e" stroke-width="0.6" x1="275" x2="275" y1="97" y2="109" /><text fill="#0f3460" font-family="monospace" font-size="3.5" x="265" y="95">D4</text><text fill="#533483" font-family="monospace" font-size="2.5" x="269" y="112">1N4007</text></g><g><circle cx="305" cy="70" fill="none" r="8" stroke="#16213e" stroke-width="0.7" /><text fill="#16213e" font-size="7" font-weight="bold" x="302.5" y="72">M</text><line stroke="#1a1a2e" stroke-width="0.4" x1="297" x2="291" y1="70" y2="70" /><line stroke="#1a1a2e" stroke-width="0.4" x1="313" x2="319" y1="70" y2="70" /><text fill="#0f3460" font-family="monospace" font-size="3.5" x="302" y="60">M1</text><text fill="#533483" font-family="monospace" font-size="2.5" x="293" y="84">DC 12V</text></g><line stroke="#1a73e8" stroke-width="0.5" x1="240" x2="265" y1="135" y2="135" /><line stroke="#1a73e8" stroke-width="0.5" x1="265" x2="265" y1="135" y2="70" /><line stroke="#1a73e8" stroke-width="0.5" x1="265" x2="291" y1="70" y2="70" /><text fill="#1a73e8" font-family="monospace" font-size="2.8" style="background:white" x="265" y="137">OUT1</text><line stroke="#1a73e8" stroke-width="0.5" x1="240" x2="275" y1="150" y2="150" /><line stroke="#1a73e8" stroke-width="0.5" x1="275" x2="275" y1="150" y2="80" /><line stroke="#1a73e8" stroke-width="0.5" x1="275" x2="291" y1="80" y2="70" /><text fill="#1a73e8" font-family="monospace" font-size="2.8" style="background:white" x="275" y="152">OUT2</text><g><circle cx="305" cy="115" fill="none" r="8" stroke="#16213e" stroke-width="0.7" /><text fill="#16213e" font-size="7" font-weight="bold" x="302.5" y="117">M</text><line stroke="#1a1a2e" stroke-width="0.4" x1="297" x2="291" y1="115" y2="115" /><line stroke="#1a1a2e" stroke-width="0.4" x1="313" x2="319" y1="115" y2="115" /><text fill="#0f3460" font-family="monospace" font-size="3.5" x="302" y="105">M2</text><text fill="#533483" font-family="monospace" font-size="2.5" x="293" y="129">DC 12V</text></g><line stroke="#1a73e8" stroke-width="0.5" x1="240" x2="285" y1="165" y2="165" /><line stroke="#1a73e8" stroke-width="0.5" x1="285" x2="285" y1="165" y2="115" /><line stroke="#1a73e8" stroke-width="0.5" x1="285" x2="291" y1="115" y2="115" /><text fill="#1a73e8" font-family="monospace" font-size="2.8" style="background:white" x="285" y="167">OUT3</text><line stroke="#1a73e8" stroke-width="0.5" x1="240" x2="295" y1="180" y2="180" /><line stroke="#1a73e8" stroke-width="0.5" x1="295" x2="295" y1="180" y2="125" /><line stroke="#1a73e8" stroke-width="0.5" x1="295" x2="291" y1="125" y2="115" /><text fill="#1a73e8" font-family="monospace" font-size="2.8" style="background:white" x="295" y="182">OUT4</text><rect fill="#fff8e1" height="18" rx="2" stroke="#16213e" stroke-width="0.6" width="40" x="305" y="175" /><text fill="#f57f17" font-size="3" font-weight="bold" x="306" y="180">SG90 Servo</text><text fill="#ff6b35" font-size="2.5" x="306" y="186">GPIO12 PWM</text><text fill="#0f3460" font-size="2.3" x="306" y="191">+5V | GND</text><line stroke="#ff6b35" stroke-width="0.5" x1="315" x2="325" y1="135" y2="135" /><line stroke="#ff6b35" stroke-width="0.5" x1="325" x2="305" y1="135" y2="183" /><line stroke="#e94560" stroke-width="0.5" x1="320" x2="320" y1="175" y2="60" /><circle cx="320" cy="60" fill="#e94560" r="1.2" /><line stroke="#2d6a4f" stroke-width="0.5" x1="330" x2="330" y1="193" y2="502" /><line stroke="#2d6a4f" stroke-width="0.5" x1="330" x2="330" y1="502" y2="507" /><line stroke="#2d6a4f" stroke-width="0.5" x1="325" x2="335" y1="507" y2="507" /><line stroke="#2d6a4f" stroke-width="0.5" x1="327" x2="333" y1="509" y2="509" /><line stroke="#2d6a4f" stroke-width="0.5" x1="328.5" x2="331.5" y1="511" y2="511" /><rect fill="white" height="80" stroke="#ccc" stroke-width="0.3" width="90" x="305" y="210" /><text fill="#16213e" font-size="3.5" font-weight="bold" x="307" y="217">图例 LEGEND</text><line stroke="#f5a623" stroke-width="1.5" x1="307" x2="323" y1="225" y2="225" /><text fill="#0f3460" font-size="3" x="325" y="226">+12V 电源</text><line stroke="#e94560" stroke-width="1.5" x1="307" x2="323" y1="236" y2="236" /><text fill="#0f3460" font-size="3" x="325" y="237">+5V 电源</text><line stroke="#1a73e8" stroke-width="1.5" x1="307" x2="323" y1="247" y2="247" /><text fill="#0f3460" font-size="3" x="325" y="248">GPIO 信号</text><line stroke="#ff6b35" stroke-width="1.5" x1="307" x2="323" y1="258" y2="258" /><text fill="#0f3460" font-size="3" x="325" y="259">PWM 控制</text><line stroke="#2d6a4f" stroke-width="1.5" x1="307" x2="323" y1="269" y2="269" /><text fill="#0f3460" font-size="3" x="325" y="270">GND 地线</text><rect fill="#f5f5f5" height="18" stroke="#ddd" stroke-width="0.3" width="390" x="5" y="480" /><text fill="#555" font-size="2.8" x="7" y="491">⚠ 设计说明：L298N 需独立 12V 供电，Pi 5 GPIO 仅作信号控制（3.3V TTL）；续流二极管 D1-D4 防止电机反电动势损坏芯片；PWM 频率建议 1-5kHz；舵机使用 50Hz PWM 控制脉宽 1-2ms</text></svg>